# xmcd CD database file
#
# Track frame offsets:
#	150
#	11196
#	23272
#	37464
#	49055
#	59349
#	72233
#	84450
#	96114
#	107216
#	118337
#	127629
#	140673
#	152208
#	166628
#	180095
#	193857
#	197409
#	210689
#	222335
#	233776
#
# Disc length: 3220 seconds
#
# Revision: 0
# Processed by: cddbd v1.5.2PL0 Copyright (c) Steve Scherf et al.
# Submitted via: CDex 1.70beta2
#
DISCID=240c9215
DTITLE=Dolly Parton and Porter Wagoner - Just between you and me CD 6
DYEAR=2014
DGENRE=Country
TTITLE0=Life rides the train
TTITLE1=Two
TTITLE2=Hide me away
TTITLE3=We'd have to be crazy
TTITLE4=Love to see us through
TTITLE5=If you were mine
TTITLE6=Our love
TTITLE7=Is forver longe than always
TTITLE8=I learnded it well
TTITLE9=Touching memories
TTITLE10=In the morning
TTITLE11=About Susanne, about your man
TTITLE12=A fool like me
TTITLE13=Someone just like you
TTITLE14=Golden streets of glory
TTITLE15=Twin mounds of clay
TTITLE16=Intro by Porter
TTITLE17=Run that by me one more time (live)
TTITLE18=Jeannie's afraid of the drak (live)
TTITLE19=Tomorrow is forever (live)
TTITLE20=Two sides to every story (live)
EXTD=YEAR: 2014
EXTT0=
EXTT1=
EXTT2=
EXTT3=
EXTT4=
EXTT5=
EXTT6=
EXTT7=
EXTT8=
EXTT9=
EXTT10=
EXTT11=
EXTT12=
EXTT13=
EXTT14=
EXTT15=
EXTT16=
EXTT17=
EXTT18=
EXTT19=
EXTT20=
PLAYORDER=
